<svg version="1.1" id="Layer_1" xmlns="http://www.w3.org/2000/svg" xmlns:xlink="http://www.w3.org/1999/xlink" x="0px" y="0px"
	 width="100%" viewBox="0 0 1024 1024" enable-background="new 0 0 1024 1024" xml:space="preserve">
<path fill="#000000" opacity="1.000000" stroke="none" 
	d="
M780.010742,790.807007 
	C792.056519,787.903748 803.740112,785.272095 815.295410,782.163269 
	C819.769043,780.959595 821.035156,782.375916 821.032471,786.536377 
	C821.017090,810.199585 821.011353,833.863098 821.164734,857.525513 
	C821.188416,861.176697 819.445374,862.488770 816.301636,863.161621 
	C791.762695,868.414429 767.148315,873.262695 742.374084,877.285828 
	C718.096375,881.228333 693.719910,884.546265 669.270142,887.066223 
	C647.610413,889.298645 625.903992,891.167847 604.149048,892.564026 
	C571.069763,894.686951 537.981506,896.283813 504.851349,895.891418 
	C474.734131,895.534790 444.614044,894.901855 414.543182,892.564148 
	C394.315735,890.991699 374.067719,889.622375 353.924744,887.253906 
	C315.485291,882.734131 277.100250,877.753662 239.164642,869.877686 
	C229.242645,867.817688 219.371536,865.513611 209.460510,863.399231 
	C206.784271,862.828369 204.793625,861.982727 204.798950,858.679138 
	C204.838715,834.016724 204.796265,809.354126 204.813431,784.691589 
	C204.813980,783.901367 205.179138,783.111328 205.476959,781.905762 
	C212.859146,782.563416 219.805496,784.820068 226.842224,786.434204 
	C257.133301,793.382385 287.707642,798.819275 318.414459,803.452942 
	C347.973419,807.913452 377.691315,811.055847 407.465210,813.898926 
	C458.146088,818.738403 508.911865,818.683960 559.664307,817.404663 
	C591.056580,816.613464 622.429871,814.279419 653.704285,810.832642 
	C695.998108,806.171387 738.021851,799.993164 780.010742,790.807007 
M394.543549,862.563416 
	C394.995270,860.141663 394.015289,857.451660 395.667267,854.705933 
	C397.815369,857.139465 397.698425,859.738770 398.411133,862.025330 
	C398.852661,863.442017 399.030945,865.227966 400.747894,865.528503 
	C402.884064,865.902283 403.371155,863.908752 404.124329,862.480164 
	C405.166443,860.503540 406.159393,858.500916 407.418152,856.028748 
	C409.449188,859.761475 406.950348,863.581604 409.299957,866.413696 
	C411.065338,866.292664 411.475922,865.237671 411.582275,864.008972 
	C411.954071,859.713684 412.370605,855.419495 412.597015,851.115723 
	C412.697052,849.213989 413.192627,846.809937 410.574554,846.098389 
	C407.872314,845.363831 407.432861,847.850525 406.430023,849.478821 
	C404.788300,852.144531 404.726379,855.820984 401.454224,857.683044 
	C399.330353,854.089355 399.223724,850.134705 397.795166,846.617554 
	C397.253998,845.285217 396.502838,844.276550 394.915680,844.338745 
	C393.550659,844.392212 392.649719,845.269104 392.548737,846.489685 
	C392.125031,851.610474 390.899750,856.678955 391.351196,861.854858 
	C391.519562,863.784668 392.138977,865.371948 394.543549,862.563416 
M499.488037,855.814514 
	C499.085266,857.668823 499.111298,859.700134 497.428925,861.086914 
	C494.584442,857.724731 496.644379,852.232666 491.713318,848.708618 
	C490.671844,855.443115 493.362701,860.596130 494.259796,865.979492 
	C494.539825,867.659851 494.878845,869.455017 496.964813,869.644043 
	C499.491516,869.873108 499.697540,867.605957 500.291016,865.979919 
	C501.194244,863.504944 500.904327,860.550964 503.528687,857.948792 
	C504.379425,861.244385 504.971161,863.940125 505.795258,866.562866 
	C506.221527,867.919373 506.618744,869.675049 508.585724,869.584778 
	C510.444244,869.499451 510.978699,867.864319 511.334045,866.451721 
	C512.505676,861.793823 513.589966,857.110901 514.556030,852.406433 
	C514.792725,851.253601 515.271912,849.670715 513.109497,849.055054 
	C509.399872,852.136230 511.479889,857.598816 508.599762,861.252502 
	C506.359100,858.620972 507.016418,855.335876 505.804230,852.644897 
	C505.198395,851.300049 505.050110,849.480225 503.119537,849.579651 
	C501.397888,849.668335 500.722382,851.142273 500.332794,852.669434 
	C500.127563,853.474121 499.910767,854.275818 499.488037,855.814514 
M486.275635,851.293823 
	C483.171143,847.690430 479.532135,847.395203 475.652466,849.801575 
	C471.439819,852.414551 469.539825,858.482117 471.230804,863.373291 
	C472.711884,867.656982 475.424500,870.607605 480.212219,870.544067 
	C484.355896,870.489075 488.107178,866.254333 488.586914,861.428284 
	C488.917877,858.098938 488.824829,854.791748 486.275635,851.293823 
M545.353516,865.095215 
	C545.569641,866.598999 544.779846,868.570435 547.731689,869.239868 
	C550.149475,865.407227 547.433960,860.575134 549.589478,856.306030 
	C552.960815,859.369751 553.969971,863.377319 556.163635,866.611023 
	C557.055542,867.925781 558.005493,869.072021 559.785583,868.552002 
	C561.354187,868.093750 561.601624,866.710022 561.617798,865.345764 
	C561.672974,860.685547 561.713074,856.024048 561.657654,851.364319 
	C561.641907,850.036926 561.385742,848.623657 559.100037,848.798218 
	C557.084839,852.275085 559.642334,856.755371 557.140991,860.921570 
	C555.231445,857.495972 553.621887,854.610535 552.014465,851.723938 
	C551.028015,849.952454 550.027344,847.930542 547.594604,848.397400 
	C544.858276,848.922485 545.429993,851.390137 545.383484,853.291809 
	C545.293945,856.951294 545.353455,860.614441 545.353516,865.095215 
M745.823486,850.509277 
	C748.536560,850.574951 748.726196,848.746399 748.468323,846.789368 
	C747.905579,842.518127 747.242126,838.259888 746.589783,834.000916 
	C746.328674,832.296509 745.862305,830.723877 743.433838,830.801270 
	C741.883667,834.830566 745.104065,838.762695 743.656860,843.617920 
	C740.866943,840.030457 738.495239,836.945312 736.081970,833.893066 
	C734.952393,832.464417 733.461914,831.715271 731.700378,832.522583 
	C729.965637,833.317688 730.282227,835.044678 730.464844,836.479431 
	C731.008179,840.747925 731.685303,844.999573 732.319214,849.256409 
	C732.490295,850.405212 732.539246,851.679810 734.480103,851.543518 
	C737.437012,847.762756 733.036133,843.304443 735.401306,839.036865 
	C739.225830,842.498596 740.988220,847.486572 745.823486,850.509277 
M220.593735,838.010681 
	C222.695435,840.728882 225.765137,840.627808 228.707855,840.666992 
	C234.090836,840.738647 236.344086,838.015442 234.885117,832.812378 
	C234.301712,830.731750 235.038681,829.388367 235.805923,827.724243 
	C237.515182,824.016968 236.070251,821.452087 231.624008,819.912476 
	C226.827454,818.251404 224.504395,819.084351 223.480209,823.194641 
	C222.322205,827.842163 221.465439,832.564697 220.593735,838.010681 
M311.399200,849.624756 
	C312.077637,847.396484 310.858154,844.615845 313.689941,842.353149 
	C315.142426,846.441040 316.363129,850.184204 317.811249,853.837219 
	C318.686279,856.044617 320.097534,857.877869 322.618500,855.558350 
	C324.504639,853.822998 325.804352,840.987183 324.461670,838.001709 
	C320.765472,840.500671 323.199127,845.644775 319.733490,848.873169 
	C318.289703,845.012817 317.072479,841.630371 315.753601,838.288025 
	C315.129974,836.707642 314.198486,835.055969 312.307953,835.089539 
	C310.089386,835.128967 310.032043,837.305847 309.727814,838.814636 
	C308.875458,843.042114 308.222229,847.311218 307.561462,851.574829 
	C307.385010,852.713379 307.312439,853.979553 309.028290,854.151672 
	C310.579712,853.336975 310.395660,851.578613 311.399200,849.624756 
M598.210510,845.428101 
	C593.398071,845.256226 590.156372,847.610229 588.867859,852.072449 
	C587.527283,856.714600 587.782471,861.306274 591.527222,865.038025 
	C595.130310,868.628784 599.851746,868.542358 603.362793,864.824402 
	C609.089722,858.759888 606.928650,849.310242 598.210510,845.428101 
M370.888763,857.501343 
	C372.985291,863.104736 377.328583,866.034241 381.714752,864.362549 
	C385.984406,862.735229 388.047852,859.082397 388.566833,854.723877 
	C389.076202,850.446533 388.538147,846.366333 384.370209,843.797729 
	C381.191711,841.838867 378.156067,841.853821 375.206238,844.358093 
	C371.328003,847.650513 369.791779,851.757385 370.888763,857.501343 
M416.914246,864.402222 
	C422.019470,869.734314 427.039703,870.109680 430.723450,865.132690 
	C433.761108,861.028687 434.707062,856.425720 432.416077,851.543152 
	C429.459229,845.241516 422.034546,844.430115 417.928436,850.084839 
	C414.874054,854.291138 414.371643,858.921387 416.914246,864.402222 
M625.655518,857.944824 
	C626.858582,846.928894 620.351013,842.961975 612.354309,844.766541 
	C610.579712,845.167053 609.202209,845.907410 609.262878,848.015015 
	C609.410828,853.156494 609.065247,858.316833 610.199707,863.415344 
	C610.644226,865.412720 611.788452,866.191162 613.622009,866.386658 
	C618.997864,866.959839 623.350952,864.182861 625.655518,857.944824 
M466.256989,864.820068 
	C464.387634,862.216675 465.093628,860.188599 467.178314,857.902771 
	C469.099518,855.796448 469.399902,852.916199 467.335602,850.632446 
	C464.647217,847.657959 460.899689,847.449768 457.245422,847.968750 
	C454.125671,848.411743 454.342072,851.068787 454.318146,853.422363 
	C454.277771,857.396179 454.149078,861.370056 454.172516,865.343201 
	C454.180206,866.648865 453.400604,868.431458 455.659576,868.961975 
	C458.501740,866.974548 456.724243,863.314026 458.556030,860.652161 
	C462.183228,861.410278 461.915161,864.890625 463.346710,867.008728 
	C464.075745,868.087463 464.622528,869.699951 466.278290,868.924194 
	C468.061859,868.088562 466.725220,866.642700 466.256989,864.820068 
M539.701111,867.118042 
	C541.085693,865.406128 541.945007,863.413574 542.408691,861.307800 
	C544.154480,853.378235 537.813599,846.371399 530.835754,848.524963 
	C526.365784,849.904541 524.990662,853.712646 524.455444,857.764526 
	C523.881104,862.112854 525.017517,866.113281 528.863708,868.672607 
	C532.455261,871.062561 536.045593,870.795166 539.701111,867.118042 
M450.560944,855.778931 
	C450.646301,854.958069 450.876434,854.122131 450.793152,853.318787 
	C450.314026,848.695618 447.168854,847.610352 443.124786,847.306152 
	C438.970093,846.993530 437.181183,848.485107 436.829865,852.769531 
	C436.504333,856.739441 436.359650,860.693359 436.318848,864.661743 
	C436.303802,866.124634 436.125977,867.792419 438.422791,867.940796 
	C441.233612,866.029053 438.079956,861.988037 441.168457,860.009705 
	C445.388062,861.186646 444.125549,867.304932 449.179169,868.663696 
	C449.537720,864.384460 445.197418,859.713379 450.560944,855.778931 
M292.288849,831.974243 
	C285.552856,829.821228 283.429535,830.237488 282.540710,834.268372 
	C281.615173,838.465820 281.048798,842.743835 280.369843,846.993713 
	C280.050781,848.990845 280.531219,850.512390 282.714294,851.297668 
	C287.833160,853.139038 293.825531,851.128784 296.175751,846.644592 
	C299.082489,841.098633 297.899475,835.868652 292.288849,831.974243 
M714.333496,855.493347 
	C718.652710,848.340942 718.652710,848.340942 728.513184,853.247437 
	C730.081238,852.156799 729.225952,850.853516 728.705994,849.709229 
	C726.643433,845.170654 724.542297,840.648193 722.355225,836.168579 
	C721.722290,834.872070 721.053650,833.347290 719.102234,833.614563 
	C717.110962,833.887268 716.411316,835.312012 716.011658,837.043396 
	C714.855164,842.053223 713.630981,847.047852 712.532959,852.070251 
	C712.258362,853.326233 712.020752,854.777039 714.333496,855.493347 
M780.751892,839.191345 
	C782.059021,840.290527 782.426270,842.583923 784.631104,842.429932 
	C785.448364,842.001770 785.757141,841.366943 785.554749,840.707214 
	C783.725037,834.742859 780.198914,829.667664 776.675842,824.663696 
	C775.042542,822.343811 772.568054,823.623169 772.023926,825.658386 
	C770.346313,831.933411 768.987122,838.331055 770.041382,845.354431 
	C772.407898,841.267334 775.044373,838.138062 780.751892,839.191345 
M630.981750,849.458740 
	C629.935547,854.258606 627.330383,858.869568 628.676880,864.588806 
	C634.887146,858.107239 634.944763,858.100647 644.132629,862.713074 
	C643.440674,855.418884 640.062561,849.573608 636.832336,843.776917 
	C635.785583,841.898499 633.736206,843.026611 632.768921,844.545776 
	C631.988770,845.771118 631.707520,847.314148 630.981750,849.458740 
M327.682556,851.841858 
	C329.845093,857.794434 333.576660,860.514526 338.192444,859.502869 
	C341.806091,858.710876 345.388245,853.965332 343.903931,851.380310 
	C342.044067,848.141296 339.049622,849.209167 335.961792,850.088013 
	C337.018799,852.204285 340.504425,851.537048 339.932617,854.377930 
	C339.618042,855.940918 338.256439,856.264038 336.832275,856.303101 
	C334.424225,856.369202 332.627106,855.408447 331.699585,853.145020 
	C331.392181,852.394897 331.162781,851.505737 331.250275,850.719360 
	C331.613983,847.450500 331.438904,843.884888 334.459900,841.629395 
	C337.546356,839.325012 340.565308,841.123413 344.357269,843.061340 
	C338.434723,836.368103 332.367737,837.062500 329.066162,843.871765 
	C327.974274,846.123779 327.264801,848.520386 327.682556,851.841858 
M793.863464,837.286804 
	C792.477478,837.524292 791.104919,835.689941 789.365906,837.616211 
	C790.182739,840.864624 792.847534,840.952576 795.457703,840.549316 
	C798.978699,840.005432 801.091614,837.695496 801.497070,834.187866 
	C801.831543,831.294495 800.160217,829.377197 797.474365,828.649475 
	C795.735229,828.178467 793.818298,828.400757 792.036194,828.039795 
	C790.563293,827.741455 789.045288,827.036865 788.934570,825.246704 
	C788.808350,823.205933 790.393555,822.474976 792.002869,821.838501 
	C793.406189,821.283447 795.436523,822.667053 796.427979,820.277527 
	C794.497314,817.961914 792.187012,818.018799 789.821167,819.351379 
	C787.259033,820.794678 785.140442,822.748474 785.448608,826.031250 
	C785.718079,828.901733 787.775757,830.334167 790.346619,831.034973 
	C791.615295,831.380737 792.953552,831.526428 794.270691,831.624695 
	C795.960327,831.750793 797.840698,831.653259 798.077209,833.903992 
	C798.324890,836.260986 796.717285,837.071472 793.863464,837.286804 
M672.495056,856.840942 
	C672.303711,857.426697 671.770508,858.205444 671.975037,858.567749 
	C673.641479,861.519592 676.518127,860.874146 679.079468,860.558960 
	C681.996155,860.200012 683.935242,858.282593 684.477905,855.434509 
	C684.956238,852.924072 683.738953,850.930603 681.530945,849.612549 
	C679.767151,848.559753 677.738037,848.540405 675.811707,848.091003 
	C674.159424,847.705505 672.610352,846.672607 672.976196,844.625793 
	C673.291321,842.862671 674.915833,842.572327 676.440491,842.340820 
	C677.954773,842.111023 679.652893,843.604919 681.265503,841.630432 
	C679.162109,838.676941 676.266846,838.661926 673.478210,839.872131 
	C670.983765,840.954712 668.954285,842.959961 669.422668,846.072998 
	C669.981567,849.787354 672.747620,851.189270 676.125122,851.600464 
	C678.465637,851.885437 681.481812,851.910645 681.002563,855.093628 
	C680.467407,858.648438 677.398071,857.579224 674.979736,857.088196 
	C674.338257,856.957825 673.708313,856.770447 672.495056,856.840942 
M238.728104,836.582703 
	C238.363998,840.267334 240.214401,842.465088 243.465897,843.816345 
	C246.502411,845.078125 249.291763,844.920776 251.782242,842.633423 
	C254.754135,839.903931 256.691162,829.797791 254.993561,825.516541 
	C251.405579,827.357544 252.819748,831.131775 251.718719,833.861755 
	C250.465256,836.969604 251.342377,842.296387 245.790726,841.092285 
	C240.185333,839.876465 242.673553,835.072021 242.959778,831.567688 
	C243.157730,829.144043 244.678864,826.757385 242.983521,823.888916 
	C239.622650,827.559631 239.765182,831.862854 238.728104,836.582703 
M694.821350,852.523315 
	C696.557251,856.638367 699.735046,858.223511 704.024780,857.541748 
	C707.133240,857.047791 709.159607,855.302795 710.321106,851.338257 
	C706.060791,852.966187 702.643921,856.733643 699.212891,852.743408 
	C696.780579,849.914673 696.040466,846.359985 697.392212,842.480652 
	C699.632996,836.049927 704.194519,840.011230 708.379272,840.534546 
	C707.265137,836.799316 705.031006,835.713379 702.234375,835.608582 
	C699.206909,835.495117 696.703064,836.713623 695.155823,839.393616 
	C692.844788,843.396362 692.716248,847.571350 694.821350,852.523315 
M765.268860,828.715149 
	C765.279846,827.658508 765.126465,826.590820 763.803223,826.604309 
	C762.503540,826.617493 762.390564,827.815613 762.202087,828.766052 
	C761.389648,832.864319 760.614563,836.969971 759.716553,841.641541 
	C755.144470,837.822815 755.561035,830.986206 749.556396,829.277405 
	C751.793396,835.330566 753.939880,841.388489 757.983521,846.337097 
	C760.188721,849.035889 762.111450,847.530823 762.647339,844.498169 
	C763.534058,839.480896 764.296448,834.441589 765.268860,828.715149 
M577.350464,859.356812 
	C577.758789,862.094849 576.280579,865.344910 579.499390,867.659180 
	C581.992920,865.031006 580.648254,862.110046 580.710632,859.473511 
	C580.818115,854.928345 579.309021,849.792542 585.737976,848.052246 
	C585.779968,848.040833 585.666931,847.456787 585.547241,846.524048 
	C581.302856,846.726440 576.874573,845.127197 571.530396,848.550354 
	C578.816162,849.814880 577.173767,854.521912 577.350464,859.356812 
M651.075867,860.896851 
	C654.347473,864.006775 653.781799,860.622375 653.652771,859.187134 
	C653.188660,854.024902 654.243958,849.367065 657.255615,845.102295 
	C657.913391,844.170654 658.982422,842.851685 657.274170,841.592529 
	C653.764526,842.061279 654.272278,846.530701 651.426086,847.646484 
	C648.719910,846.910767 648.223999,843.005981 643.899353,842.834045 
	C646.841614,848.886536 651.717041,853.558899 651.075867,860.896851 
M265.731110,846.990723 
	C268.846344,849.730652 272.173553,850.226868 276.139496,848.148315 
	C269.307495,844.334961 269.289673,844.331543 270.891449,835.981812 
	C271.335541,833.666870 272.315582,831.360657 270.359711,828.089539 
	C266.950287,834.292664 267.049774,840.488953 265.731110,846.990723 
M359.566986,860.178101 
	C361.504425,862.256775 362.161102,860.519531 362.463043,859.024292 
	C363.019958,856.266418 363.357056,853.458130 363.664398,850.657471 
	C364.043182,847.205444 364.272614,843.723206 369.048584,842.940735 
	C365.359558,841.530640 362.019897,839.914062 357.617706,842.357788 
	C360.959656,843.581421 361.014923,845.491272 360.630951,848.116882 
	C360.081635,851.872986 358.971100,855.613403 359.566986,860.178101 
M262.991730,835.725098 
	C263.455231,832.826538 264.946899,829.858948 261.881348,825.931519 
	C259.734833,833.194519 258.322266,839.496216 257.633789,847.195129 
	C263.092407,844.406982 261.693176,839.902588 262.991730,835.725098 
M304.067749,841.221069 
	C304.377075,839.045471 306.790375,836.880798 303.269989,833.536316 
	C302.390656,840.703735 299.371338,846.494995 300.390045,854.408325 
	C304.934113,850.205688 303.387421,845.838806 304.067749,841.221069 
M662.531677,845.400146 
	C664.819763,846.932739 665.176941,845.132141 665.491638,843.584656 
	C665.698425,842.567993 665.269653,841.448364 664.098572,841.490784 
	C661.838379,841.572693 662.519897,843.430725 662.531677,845.400146 
z"/>
<path fill="#000000" opacity="1.000000" stroke="none" 
	d="
M385.226532,377.630249 
	C427.468872,394.972595 467.304810,416.024078 505.008698,441.130402 
	C508.133850,443.211365 508.309479,445.675873 508.308350,448.742065 
	C508.284088,515.571960 508.290588,582.401917 508.288818,649.231812 
	C508.288330,666.878967 508.297852,684.526184 508.252136,702.173218 
	C508.246674,704.278259 508.675507,706.477539 507.551361,708.504089 
	C505.476746,709.033447 505.045929,707.172058 504.134430,706.191101 
	C478.680725,678.797729 450.121033,655.251404 417.789642,636.367004 
	C416.639526,635.695251 415.445740,635.098572 414.276306,634.459534 
	C403.467346,628.552856 404.312439,631.977173 407.973175,618.856934 
	C410.383911,610.216675 415.201111,603.182251 421.953461,597.426575 
	C435.171448,586.159790 445.662384,572.651245 454.389374,557.749268 
	C461.218811,546.087585 468.368469,534.670410 476.924530,524.175659 
	C478.286102,522.505554 479.546692,520.699402 480.536987,518.791565 
	C482.586823,514.842407 480.981903,512.025940 476.529663,511.380951 
	C469.637451,510.382538 464.251678,513.502625 459.303131,517.725037 
	C454.457703,521.859375 450.535828,526.840088 446.626495,531.825073 
	C443.834656,535.385071 440.693573,538.594971 436.953247,541.163208 
	C432.225708,544.409241 429.742493,543.771423 426.968994,538.706421 
	C424.038544,533.354797 423.871368,527.403625 424.209198,521.666626 
	C425.326447,502.692261 429.293335,484.185120 434.205353,465.853607 
	C436.307343,458.009247 438.533203,450.152740 438.665802,441.919464 
	C438.698730,439.872589 438.426605,437.949524 437.317291,436.182251 
	C434.138916,431.118805 429.227814,431.060303 426.496521,436.344513 
	C422.337006,444.391968 420.899445,453.371460 418.280243,461.947754 
	C415.463104,471.172272 412.653107,480.400299 409.687469,489.577515 
	C408.402771,493.553162 406.521606,497.315063 403.716553,500.467987 
	C401.053345,503.461365 398.691193,502.927155 397.743835,499.062714 
	C395.850525,491.339508 396.493011,483.471954 397.093994,475.687561 
	C398.065338,463.105743 399.451935,450.556244 400.632629,437.990234 
	C401.045441,433.596802 400.328674,429.328918 398.651764,425.278748 
	C397.302338,422.019562 394.999359,419.381958 391.217560,419.649841 
	C387.584869,419.907196 387.178528,423.428284 386.752594,426.073578 
	C384.801392,438.191437 382.998260,450.336609 381.381500,462.503845 
	C379.829620,474.182983 378.614655,485.906616 377.143555,497.597107 
	C376.900574,499.528412 376.187439,501.443390 374.011627,502.707916 
	C369.696899,499.299316 370.505127,494.194794 369.825043,489.914642 
	C367.534180,475.496704 366.436615,460.903290 363.671600,446.543213 
	C363.040833,443.267242 362.338043,440.055786 360.732117,437.070892 
	C359.324158,434.453949 357.454681,432.808594 354.342255,433.503143 
	C351.172516,434.210541 350.384399,436.579224 350.260956,439.524658 
	C349.925049,447.540985 351.152496,455.460144 351.617401,463.424683 
	C351.946228,469.059174 352.781158,474.665039 353.080353,480.300140 
	C353.618439,490.434387 353.942749,500.580353 354.302643,510.723328 
	C354.347687,511.992523 354.606812,513.410217 353.041748,514.736816 
	C350.724670,513.773010 350.316345,511.436035 349.667938,509.347687 
	C346.262909,498.381042 344.421143,487.037720 341.661682,475.914825 
	C340.775879,472.344238 339.625366,468.852966 337.602478,465.763092 
	C336.177582,463.586670 334.220520,461.837921 331.358307,462.717468 
	C328.657898,463.547272 327.567047,465.776489 327.373352,468.490051 
	C326.857941,475.712341 328.329224,482.755554 329.657074,489.750916 
	C333.100616,507.892334 335.122314,526.182251 336.408020,544.585571 
	C337.649353,562.353149 341.038605,579.800171 344.839172,597.168457 
	C345.235474,598.979431 345.617401,600.738098 344.826294,602.462524 
	C343.683807,603.502991 342.583801,602.933350 341.523468,602.521484 
	C334.224640,599.686279 326.819763,597.164001 319.253448,595.149658 
	C316.046387,594.295898 314.802399,592.461121 314.645721,589.079651 
	C313.560425,565.658325 311.266785,542.337036 308.994141,519.002258 
	C307.271881,501.319122 305.795288,483.593048 304.394287,465.871002 
	C302.508392,442.015625 301.074036,418.125214 299.033173,394.280212 
	C297.870544,380.695679 297.441132,367.047791 296.730377,353.425903 
	C296.654541,351.973145 296.364838,350.415558 297.943604,348.369507 
	C327.525391,355.596130 356.303345,366.214081 385.226532,377.630249 
z"/>
<path fill="#000000" opacity="1.000000" stroke="none" 
	d="
M659.979858,461.640991 
	C658.353149,472.740326 656.931396,483.426331 655.237366,494.068970 
	C654.764832,497.037903 654.791504,500.419250 651.876526,502.691254 
	C649.225769,501.750793 649.106567,499.400543 648.739441,497.414978 
	C646.837280,487.128204 645.721741,476.738525 644.574463,466.341125 
	C643.138855,453.331268 641.133911,440.383636 639.313599,427.417694 
	C639.108093,425.953918 638.667847,424.473145 638.059692,423.125153 
	C636.101685,418.785004 631.889893,418.316162 629.016113,422.139740 
	C625.944885,426.225983 625.336365,431.147400 625.719116,435.920868 
	C627.341431,456.151428 628.830444,476.377228 628.313477,496.692871 
	C628.257080,498.909882 629.104858,501.934296 626.153381,502.690308 
	C623.309814,503.418640 621.667480,500.948425 620.442993,498.744965 
	C616.114014,490.954620 614.270935,482.256378 611.653442,473.856659 
	C608.488525,463.700104 605.696472,453.427887 602.640930,443.236328 
	C602.026367,441.186493 601.097839,439.194275 600.058167,437.317291 
	C598.618042,434.717377 596.610352,432.673370 593.273132,433.270294 
	C589.608459,433.925812 587.986450,436.672760 587.508667,439.982361 
	C586.787476,444.978333 587.389099,449.953156 588.752869,454.796783 
	C593.976685,473.350311 598.475952,492.071808 600.809998,511.222778 
	C601.793823,519.295227 602.384338,527.540222 600.173950,535.526672 
	C597.752380,544.276245 593.242249,545.445068 586.524292,539.505859 
	C581.005249,534.626648 576.430420,528.913635 571.707520,523.302368 
	C566.372253,516.963501 560.357056,511.433685 551.350220,511.170380 
	C548.872559,511.097900 546.112061,510.913422 544.728394,513.604614 
	C543.307373,516.368347 544.559021,518.825500 546.351196,520.939758 
	C557.285522,533.839600 565.832092,548.327332 574.443665,562.789124 
	C581.917969,575.341125 591.189331,586.542236 602.351562,595.899109 
	C612.055664,604.033752 617.251099,614.346130 620.311646,626.251343 
	C621.277771,630.009155 619.058105,630.769653 616.644836,632.054504 
	C583.464783,649.719604 553.867188,672.185913 527.412842,698.840149 
	C524.558899,701.715576 522.364197,705.290527 517.903992,707.931885 
	C517.993103,699.618774 516.846985,692.096130 519.992065,684.792419 
	C526.117737,687.684753 525.949158,687.417419 532.193176,683.480591 
	C536.403564,680.826111 540.866089,678.583252 544.734375,675.385498 
	C549.418762,671.513000 551.993713,657.541382 548.974792,652.343140 
	C547.272034,649.411194 544.478760,649.536499 541.915466,650.204041 
	C537.364441,651.389343 532.821533,652.147949 528.113220,651.992371 
	C523.406189,651.836731 522.380188,656.380676 519.651184,659.233398 
	C517.100586,655.858093 517.863281,652.261353 517.856812,648.938232 
	C517.764587,601.282898 517.759644,553.627258 517.745789,505.971741 
	C517.740173,486.642914 517.829346,467.313721 517.709290,447.985687 
	C517.689270,444.766174 518.775635,442.902771 521.479309,441.133514 
	C547.570618,424.059509 574.414673,408.292755 602.578064,394.895966 
	C626.025574,383.742371 649.826904,373.510162 674.557129,365.284882 
	C690.343323,360.034424 706.082458,354.673096 722.068420,350.063812 
	C724.065125,349.488098 726.113159,348.375031 728.497375,349.247314 
	C729.975830,352.035583 729.235168,355.058105 729.046814,357.970306 
	C727.855957,376.384888 726.653320,394.799438 725.294189,413.202179 
	C723.421753,438.554749 721.446594,463.899933 719.439514,489.242310 
	C718.127991,505.801727 716.769836,522.358459 715.265320,538.901245 
	C714.241638,550.156677 713.045532,561.400024 711.688599,572.619995 
	C711.124023,577.288757 711.382019,581.934937 711.266113,586.589783 
	C711.072021,594.387573 710.457397,595.035706 701.817810,595.392578 
	C701.944092,591.214661 704.326416,587.981812 706.098328,584.572754 
	C710.250244,576.584229 709.738647,568.806702 705.058655,561.305908 
	C701.330139,555.329834 697.473328,554.692932 691.691223,558.742981 
	C691.003174,559.224854 690.316284,559.683594 688.994446,559.272888 
	C687.835205,554.528015 689.201294,549.683044 689.701233,544.863525 
	C691.173584,530.672424 691.314941,516.356506 694.410645,502.309692 
	C696.300659,493.733643 697.254272,484.946838 698.501343,476.236511 
	C698.805725,474.110413 698.633484,471.912872 698.639465,469.748077 
	C698.648560,466.455750 697.460510,463.517517 694.168945,462.750000 
	C690.934998,461.995880 689.066895,464.688049 687.611450,467.167664 
	C685.124695,471.404572 684.526672,476.270660 683.387451,480.938751 
	C681.064270,490.458405 679.422974,500.145813 676.365723,509.484009 
	C675.719177,511.458801 675.479553,513.752319 672.983765,514.568909 
	C671.077881,513.193970 671.646362,511.200134 671.662720,509.492645 
	C671.858826,489.027008 673.371582,468.638000 675.377563,448.280579 
	C675.688599,445.123810 675.974915,441.947021 675.307434,438.829041 
	C674.743103,436.192657 673.959961,433.520874 670.536804,433.258301 
	C667.225891,433.004303 665.758911,435.213531 664.774536,437.828766 
	C661.939148,445.360962 660.959229,453.278748 659.979858,461.640991 
z"/>
<path fill="#000000" opacity="1.000000" stroke="none" 
	d="
M774.291748,739.507568 
	C762.112732,742.482849 750.429626,741.878174 738.841431,738.662048 
	C735.817932,737.822998 733.231628,737.908936 730.316284,739.538330 
	C709.272217,751.300110 686.398499,757.553040 662.767761,761.320007 
	C641.890625,764.648132 620.724854,765.105957 599.745544,767.428589 
	C592.149414,768.269531 584.586182,769.413940 577.016052,770.476990 
	C575.921387,770.630676 574.687378,770.793945 573.898499,772.793518 
	C597.254028,776.599854 620.753235,779.544556 641.653076,790.951965 
	C641.317505,793.657043 639.628601,793.542175 638.533875,793.979431 
	C630.031860,797.375061 621.425598,800.516541 612.984009,804.052734 
	C609.531799,805.498840 606.912109,805.158691 603.746460,803.131470 
	C586.964355,792.385193 569.395813,783.355408 549.475281,779.890747 
	C542.831726,778.735291 536.239929,779.711426 529.591187,780.100769 
	C517.204285,780.826233 504.701630,782.099731 492.385681,780.147400 
	C479.106384,778.042236 467.014648,781.681702 454.865448,785.923706 
	C443.133392,790.020081 432.618744,796.468018 422.083282,802.865173 
	C419.443237,804.468201 417.051666,805.809937 413.760254,804.336304 
	C404.184662,800.049072 394.440918,796.164673 384.416779,793.020874 
	C384.009491,792.893127 383.711884,792.415771 382.813049,791.605225 
	C393.055847,784.826172 404.465820,782.217041 415.749542,779.229004 
	C426.905365,776.274841 438.292053,774.499023 449.751923,772.409790 
	C444.343170,769.282410 438.393890,769.150269 432.633118,768.385925 
	C405.784576,764.823425 378.527100,765.041138 351.887299,759.421570 
	C332.074615,755.242188 312.884277,749.466919 295.155548,739.439514 
	C293.456177,738.478394 291.860626,737.411194 289.570465,738.029663 
	C258.015747,746.551392 230.992538,735.480713 205.575699,718.178162 
	C195.950211,711.625610 187.420074,703.710144 178.511612,693.858582 
	C213.693481,693.324646 244.564758,702.633850 273.509277,720.323975 
	C255.765991,696.839233 242.843567,672.260315 250.904953,640.613892 
	C257.641235,646.302002 262.476624,652.210876 267.182220,658.160400 
	C280.003510,674.371216 290.659515,691.760620 294.723907,712.415527 
	C295.586304,716.798096 296.013763,721.302002 296.203186,725.768555 
	C296.325134,728.643066 297.151978,730.403992 299.978088,731.389343 
	C320.533569,738.556274 340.700165,746.999023 362.462952,750.147339 
	C373.484467,751.741760 384.561798,752.773865 395.658356,753.680420 
	C415.523163,755.303223 435.420837,756.478210 455.187805,759.293701 
	C473.975739,761.969849 492.619720,765.153442 510.721954,770.978821 
	C512.152832,771.439270 513.319214,771.097839 514.581726,770.715698 
	C537.418518,763.803223 560.802002,759.963562 584.507385,757.464294 
	C604.689575,755.336548 624.950256,754.433228 645.143677,752.580139 
	C668.351074,750.450439 690.501709,744.109253 712.276062,736.156189 
	C716.962830,734.444336 721.716858,732.908936 726.474731,731.402283 
	C728.965454,730.613647 730.501526,729.269958 730.559326,726.478760 
	C731.147522,698.081177 745.086182,675.467834 761.994995,654.167419 
	C765.604126,649.620911 769.431274,645.252380 774.322571,641.195557 
	C777.219238,645.325256 777.113159,649.912842 777.212341,654.144226 
	C777.656189,673.085327 771.502502,690.103455 761.165344,705.730652 
	C757.992249,710.527527 754.508545,715.118958 751.448975,720.380981 
	C780.629028,702.728333 812.014526,693.643494 846.225098,694.493225 
	C827.016541,716.929688 803.901062,732.997375 774.291748,739.507568 
z"/>
<path fill="#000000" opacity="1.000000" stroke="none" 
	d="
M73.003571,813.077209 
	C83.123001,802.434937 92.901505,791.960938 102.932167,781.734314 
	C105.692665,778.919861 105.552856,777.100830 102.926346,774.372131 
	C93.107819,764.171143 83.474342,753.791748 73.795174,743.457153 
	C72.576256,742.155701 71.111099,740.983643 70.674393,739.235291 
	C71.630753,737.473633 73.119629,738.053345 74.350456,738.052246 
	C120.668678,738.010193 166.987000,738.030029 213.305054,737.927307 
	C217.595551,737.917847 219.646454,738.985413 219.511307,743.820190 
	C219.204666,754.789185 219.414734,765.772522 219.414734,777.158875 
	C214.519577,777.802612 210.503494,775.544861 206.320755,774.420898 
	C199.677353,772.635620 199.076660,772.978394 199.085266,779.753967 
	C199.099243,790.750305 199.027191,801.748169 199.203232,812.742065 
	C199.265686,816.641602 198.226196,818.430115 193.880295,818.415100 
	C154.226791,818.278015 114.572662,818.326782 74.918747,818.288757 
	C73.479713,818.287415 71.910843,818.632263 70.582802,817.477417 
	C70.096191,815.474854 71.894188,814.643188 73.003571,813.077209 
z"/>
<path fill="#000000" opacity="1.000000" stroke="none" 
	d="
M833.091553,818.343384 
	C828.168945,818.951599 826.386902,817.293640 826.514832,812.570740 
	C826.812500,801.582825 826.655884,790.581482 826.614624,779.585876 
	C826.593445,773.937256 825.506287,773.170776 820.022400,774.410339 
	C815.862000,775.350769 812.068542,778.004822 807.298462,777.159790 
	C805.991028,773.284851 806.762756,769.280640 806.691528,765.359497 
	C806.561401,758.197937 806.879700,751.023071 806.584778,743.871399 
	C806.399780,739.386047 807.718506,737.858215 812.459473,737.877869 
	C856.942261,738.062256 901.426086,737.982239 945.909546,738.034851 
	C949.140564,738.038696 952.469482,737.388306 955.576111,738.444946 
	C955.936279,740.891785 954.294617,741.751892 953.201782,742.898560 
	C943.204712,753.388794 933.295593,763.966614 923.111694,774.272705 
	C920.267334,777.151245 920.662903,778.986816 923.169434,781.646851 
	C932.879578,791.951416 942.453796,802.384766 952.021179,812.822754 
	C953.099976,813.999695 954.719055,814.878357 954.963013,818.260620 
	C934.765564,818.390076 914.659790,818.306396 894.557312,818.325378 
	C874.231384,818.344543 853.905518,818.337463 833.091553,818.343384 
z"/>
<path fill="#000000" opacity="1.000000" stroke="none" 
	d="
M789.692627,641.141846 
	C792.936401,619.789185 799.362549,600.065613 811.501770,581.070923 
	C818.876831,595.075684 820.543396,609.257629 820.148010,623.609375 
	C819.750183,638.046814 814.523071,651.430054 808.949646,664.893188 
	C826.708069,646.083679 846.009827,629.818787 871.239441,622.303833 
	C875.980103,620.891724 880.690308,619.258057 885.735291,619.356201 
	C886.929504,621.291809 885.585876,622.723755 884.824341,624.022278 
	C871.008423,647.579407 854.073486,667.951660 828.118958,678.995911 
	C819.312500,682.743225 810.130127,684.794067 800.567078,685.385925 
	C796.951721,685.609619 795.074097,684.226379 793.948792,680.885864 
	C790.136292,669.567749 788.063293,658.063232 789.504089,646.083801 
	C789.682373,644.601135 789.624023,643.090027 789.692627,641.141846 
z"/>
<path fill="#000000" opacity="1.000000" stroke="none" 
	d="
M212.025467,660.885498 
	C213.362778,662.112122 214.463959,663.092407 215.565140,664.072632 
	C215.993286,663.999146 216.421417,663.925659 216.849548,663.852173 
	C203.983810,637.098999 200.927628,610.034790 212.697205,582.278320 
	C215.286346,582.818848 215.789047,584.769714 216.618027,586.239563 
	C228.671448,607.611816 235.442093,630.542542 236.182022,655.092834 
	C236.449326,663.961792 234.485397,672.573242 231.410446,680.949890 
	C230.162613,684.349243 228.263657,685.538940 224.725159,685.381714 
	C207.972382,684.637329 193.278717,678.187500 180.030930,668.560852 
	C162.917084,656.124756 150.326065,639.566345 139.564270,621.546326 
	C139.328918,621.152283 139.301102,620.634338 139.175003,620.168701 
	C155.455063,616.674744 189.890671,635.903198 212.025467,660.885498 
z"/>
<path fill="#000000" opacity="1.000000" stroke="none" 
	d="
M886.720825,548.656372 
	C894.925171,543.069458 902.929382,537.876526 912.773926,534.889587 
	C912.773926,536.365723 912.922729,537.029663 912.752502,537.598083 
	C905.342834,562.347229 895.045776,585.423767 874.552124,602.442810 
	C866.376831,609.232056 857.093079,614.052002 846.825012,616.829590 
	C840.572266,618.520996 838.557251,617.518250 835.681396,611.662109 
	C830.912354,601.950745 828.727966,591.372253 828.013794,580.847107 
	C826.683655,561.243958 826.969666,541.577942 832.918335,522.496765 
	C833.263733,521.388733 833.695129,520.297180 834.205322,519.256165 
	C834.401306,518.856262 834.929749,518.619202 835.837524,517.869812 
	C852.382996,542.126526 856.540710,568.149597 849.124451,596.433960 
	C859.014160,578.495422 869.393799,561.048035 886.720825,548.656372 
z"/>
<path fill="#000000" opacity="1.000000" stroke="none" 
	d="
M198.341339,560.028137 
	C198.959000,576.337585 196.507416,591.711853 191.156296,606.556152 
	C186.890976,618.388550 184.713577,619.037109 173.058380,614.588867 
	C147.770172,604.937561 132.652252,585.587891 122.240646,561.722168 
	C119.247978,554.862244 116.518044,547.882019 114.435791,540.672668 
	C113.940475,538.957642 112.962090,537.294373 114.139854,534.988770 
	C144.552139,546.829712 163.233994,570.166321 177.210648,598.454346 
	C168.157425,569.591980 172.629837,543.085571 190.382355,517.098572 
	C195.830200,531.721313 198.086075,545.426147 198.341339,560.028137 
z"/>
<path fill="#000000" opacity="1.000000" stroke="none" 
	d="
M871.575867,500.739807 
	C873.054688,507.036041 871.922485,513.038635 872.671570,520.536011 
	C881.599304,493.010620 894.310181,469.708984 917.985291,452.430054 
	C918.840637,460.546814 917.283325,467.194824 916.265198,473.822784 
	C913.924377,489.062500 909.864502,503.762329 900.863281,516.615051 
	C894.874634,525.166199 887.724060,532.524597 878.349670,537.439575 
	C869.049805,542.315491 865.568481,541.293030 859.981201,532.456299 
	C851.299927,518.726074 846.836670,503.486084 843.666016,487.757263 
	C841.285095,475.946533 841.404541,464.042633 841.906372,450.689270 
	C859.941528,463.363251 868.270691,480.280243 871.575867,500.739807 
z"/>
<path fill="#000000" opacity="1.000000" stroke="none" 
	d="
M109.743355,474.867371 
	C108.995514,467.556305 107.418510,460.740082 107.957687,452.263428 
	C132.162979,469.877960 144.446228,493.783813 153.133163,521.349976 
	C152.441513,493.195129 158.878387,469.059448 182.353592,451.660583 
	C183.835617,454.276245 183.983307,456.581116 183.934799,458.828705 
	C183.443024,481.621307 180.486465,503.901642 170.170074,524.653870 
	C168.083847,528.850525 165.794022,532.871643 162.640427,536.372314 
	C158.490036,540.979492 156.129974,541.594482 150.390717,538.829712 
	C137.140442,532.446594 127.642868,522.198425 120.912682,509.319702 
	C115.321732,498.621002 112.079437,487.105133 109.743355,474.867371 
z"/>
<path fill="#000000" opacity="1.000000" stroke="none" 
	d="
M895.611267,452.543823 
	C893.282715,455.644318 890.836243,458.114166 888.042114,460.261139 
	C880.776978,465.843597 879.799072,466.005798 872.541077,460.404358 
	C862.723694,452.827667 855.807190,442.855499 850.271606,431.922363 
	C843.773560,419.088257 839.470825,405.488098 836.947998,391.331085 
	C836.665527,389.746033 836.270935,388.070618 837.585144,386.255768 
	C849.519287,390.967163 858.982910,398.734100 866.047913,409.397797 
	C872.886658,419.720093 876.603394,431.410889 880.367615,443.306396 
	C883.038208,417.328369 890.766113,393.639282 908.447632,373.864014 
	C911.112244,375.721222 910.853638,378.420532 910.964844,380.475372 
	C912.180908,402.947601 910.562805,425.009674 900.137146,445.552155 
	C898.940674,447.909485 897.282654,450.032532 895.611267,452.543823 
z"/>
<path fill="#000000" opacity="1.000000" stroke="none" 
	d="
M114.830261,402.711365 
	C114.566147,392.850098 114.279221,383.452820 117.550423,373.097870 
	C135.143158,393.406158 142.969986,416.227966 145.278870,441.881500 
	C152.298553,417.592499 163.362320,396.707214 188.431244,385.817780 
	C189.153473,392.700958 187.394730,398.422729 185.878403,404.038147 
	C180.921295,422.396027 173.130127,439.520020 160.465790,453.843750 
	C148.414124,467.474518 145.851151,468.274933 132.903290,454.927338 
	C123.982956,445.731567 120.063850,434.108612 117.738930,421.863708 
	C116.564377,415.677551 115.810387,409.411530 114.830261,402.711365 
z"/>
<path fill="#000000" opacity="1.000000" stroke="none" 
	d="
M846.592896,371.382202 
	C834.682739,357.643250 826.041016,342.654572 822.017883,323.799561 
	C847.554260,332.461487 861.457153,350.721832 871.876770,372.890076 
	C867.822632,346.735840 869.474304,321.691895 884.099670,297.981995 
	C887.429932,303.077789 888.490601,308.083618 889.760864,312.983429 
	C895.137451,333.723907 895.893982,354.287170 887.246948,374.465759 
	C885.469849,378.612762 883.345093,382.557739 880.716003,386.224030 
	C877.284241,391.009674 875.086182,391.724518 869.691833,389.140015 
	C860.873657,384.915131 853.508545,378.711365 846.592896,371.382202 
z"/>
<path fill="#000000" opacity="1.000000" stroke="none" 
	d="
M163.591766,384.692261 
	C163.158371,384.998108 163.023041,385.095734 162.881638,385.183563 
	C149.881912,393.258698 147.963882,392.729797 141.373169,378.699799 
	C131.118484,356.870087 131.332108,334.328156 137.093506,311.468231 
	C137.985245,307.930054 139.115646,304.449249 140.231400,300.972626 
	C140.462387,300.252869 141.118958,299.669708 142.026413,298.396240 
	C150.033539,308.834473 152.412628,320.789307 154.998306,332.700684 
	C157.645660,344.896149 155.161804,357.149017 155.905350,369.824371 
	C166.093552,348.722351 179.657318,331.372742 204.281769,323.407013 
	C198.138977,349.586517 184.308624,369.165009 163.591766,384.692261 
z"/>
<path fill="#000000" opacity="1.000000" stroke="none" 
	d="
M197.499512,280.451904 
	C209.516632,271.448730 225.804245,264.017059 231.263611,265.124298 
	C231.161377,265.890839 231.255859,266.774139 230.922958,267.445557 
	C222.507889,284.417358 212.757919,300.341064 197.086868,311.832886 
	C190.569321,316.612305 183.280029,318.983459 175.458939,320.171722 
	C171.307999,320.802368 168.991226,318.587097 167.271713,315.126038 
	C161.324890,303.156067 159.317429,290.659546 161.349442,277.388062 
	C163.571518,262.875031 166.352631,248.575409 173.662994,235.594620 
	C174.673691,233.799942 175.264694,231.494507 178.041382,230.998322 
	C188.246399,253.354813 185.892715,276.054077 179.920731,299.180969 
	C185.855942,292.773315 190.729721,285.968384 197.499512,280.451904 
z"/>
<path fill="#000000" opacity="1.000000" stroke="none" 
	d="
M837.657715,289.404419 
	C840.264038,293.006958 842.644104,296.332520 845.024170,299.658081 
	C845.441589,299.556061 845.859009,299.454010 846.276428,299.351959 
	C840.208679,276.535767 836.945312,253.803436 847.295898,230.786880 
	C851.369751,234.585983 853.447876,238.945038 855.297424,243.326706 
	C861.892151,258.949860 865.865906,275.150421 865.340515,292.250183 
	C865.074219,300.918213 862.190002,308.838959 858.366089,316.492554 
	C856.446533,320.334839 853.281677,320.706116 849.497192,320.061523 
	C836.716309,317.884705 826.812683,310.824005 818.275208,301.597687 
	C809.275818,291.872192 802.302429,280.743988 796.512512,268.855103 
	C795.993347,267.788849 795.515198,266.741119 796.303528,264.170532 
	C812.217529,269.022278 826.561462,276.018188 837.657715,289.404419 
z"/>
<path fill="#000000" opacity="1.000000" stroke="none" 
	d="
M807.450684,252.769638 
	C784.615479,244.587601 765.544373,231.453491 749.240173,213.934494 
	C772.251770,211.961502 792.092468,218.721878 808.638245,236.225250 
	C809.632568,231.864075 808.023499,229.220032 806.877808,226.618912 
	C801.658020,214.768463 798.620483,202.386688 798.097290,189.485062 
	C797.894226,184.477585 798.776489,179.426117 799.131958,174.814697 
	C800.998047,174.206360 801.679688,174.768341 802.200134,175.375198 
	C817.400574,193.100739 828.322937,212.652420 828.316223,236.841415 
	C828.315979,237.673447 828.367371,238.520142 828.237915,239.335114 
	C827.373474,244.779663 826.986267,251.027390 823.009766,254.663116 
	C818.274414,258.992767 812.994385,253.284210 807.450684,252.769638 
z"/>
<path fill="#000000" opacity="1.000000" stroke="none" 
	d="
M228.325684,183.181763 
	C228.768188,202.043106 223.447281,219.044250 216.023483,235.988617 
	C224.645294,228.715042 233.336044,221.759781 243.934784,217.749390 
	C254.473877,213.761536 265.340088,212.760223 276.225830,212.811066 
	C276.965759,215.063797 275.832764,215.764603 275.048981,216.521454 
	C256.690247,234.248932 235.907318,247.965820 211.137665,255.073593 
	C204.495514,256.979614 203.234207,256.359619 201.018143,249.639664 
	C198.041916,240.614685 197.435699,231.466324 199.568268,222.138733 
	C203.597961,204.513077 212.352722,189.396469 223.967575,175.780289 
	C224.473038,175.187729 225.252899,174.829224 226.203903,174.147324 
	C228.134018,176.892120 228.361633,179.764893 228.325684,183.181763 
z"/>
<path fill="#000000" opacity="1.000000" stroke="none" 
	d="
M785.254761,202.085815 
	C785.544556,207.080048 783.043030,206.490723 780.209900,205.233658 
	C766.981384,199.364120 755.797607,191.038040 748.248413,178.415787 
	C741.835754,167.693817 736.461731,156.445557 731.549500,144.971848 
	C731.240723,144.250504 731.177917,143.423813 730.694519,141.302689 
	C744.728882,147.089722 756.001099,155.156326 766.202759,164.814484 
	C776.800781,174.847855 783.674927,186.898727 785.254761,202.085815 
z"/>
<path fill="#000000" opacity="1.000000" stroke="none" 
	d="
M274.927185,153.864487 
	C281.494293,149.850662 287.278625,145.101303 295.076874,143.536575 
	C289.026764,159.242355 282.741577,174.699051 271.582367,187.470749 
	C263.327240,196.918777 250.506714,204.652130 242.386444,205.766983 
	C240.611816,201.299072 242.353363,197.003448 243.323792,192.774582 
	C246.689819,178.106400 257.247772,168.582443 267.867737,159.172440 
	C269.975311,157.304977 272.370880,155.762512 274.927185,153.864487 
z"/>
<path fill="#000000" opacity="1.000000" stroke="none" 
	d="
M773.807922,267.041595 
	C780.374573,271.624176 780.413147,271.663025 775.793274,277.378906 
	C772.233276,281.783447 768.586243,286.118439 764.937012,290.449890 
	C762.388123,293.475311 762.546631,296.320465 765.769409,298.557678 
	C770.078064,301.548706 772.839722,306.647552 778.493042,307.813873 
	C780.144409,308.154602 780.239319,309.661102 780.276245,311.009460 
	C780.323975,312.753784 780.942505,314.271210 781.990540,315.608276 
	C783.309204,317.290527 784.981506,318.566467 787.130676,317.370667 
	C789.488403,316.058899 788.711487,314.004669 787.788330,312.129395 
	C785.895142,308.283264 783.302368,304.775543 783.556519,300.075409 
	C783.883606,294.024902 788.629761,289.312134 794.623352,289.731506 
	C803.631836,290.361786 813.070679,300.674805 809.608398,309.539795 
	C805.756409,309.524139 801.737549,310.010071 801.008301,304.334595 
	C800.813843,302.821716 799.817017,301.615967 798.559082,300.685181 
	C797.245972,299.713593 795.888977,299.248474 794.453857,300.366302 
	C792.957642,301.531738 793.226379,302.935333 794.041077,304.371704 
	C795.108643,306.253906 796.343018,308.064331 797.200806,310.038086 
	C799.289734,314.844482 799.090576,319.678101 795.499390,323.582397 
	C792.211304,327.157135 787.825500,327.898560 783.095276,326.388123 
	C777.461487,324.589172 773.492004,321.037415 771.809937,315.369385 
	C771.109314,313.008484 769.769043,312.221344 767.713989,311.071533 
	C761.315063,307.491364 756.105286,302.251831 750.776550,297.248413 
	C749.634155,296.175720 749.689575,294.816864 750.642944,293.635437 
	C757.749939,284.828461 764.878906,276.039124 772.042603,267.278351 
	C772.287720,266.978638 772.972534,267.038422 773.807922,267.041595 
z"/>
<path fill="#000000" opacity="1.000000" stroke="none" 
	d="
M525.177612,215.375427 
	C512.893188,213.552628 506.428864,205.129166 507.693939,193.164047 
	C508.877747,181.967468 517.493896,174.952393 529.171265,175.677826 
	C539.066223,176.292526 546.116943,184.651215 546.016541,195.648117 
	C545.908752,207.462280 537.883362,215.228348 525.177612,215.375427 
M530.117432,205.743942 
	C533.781433,203.782455 535.563782,200.461166 536.367981,196.610947 
	C537.699524,190.236237 530.414612,182.874481 524.746582,184.736664 
	C519.714539,186.389893 516.242554,193.036163 517.540344,198.531067 
	C518.901917,204.295868 523.157227,206.992828 530.117432,205.743942 
z"/>
<path fill="#000000" opacity="1.000000" stroke="none" 
	d="
M734.104187,284.316345 
	C724.412903,278.405609 721.265869,270.877045 723.843628,260.494110 
	C725.683838,253.081482 733.376099,246.454773 740.995422,245.718140 
	C751.349792,244.717087 759.594055,251.216232 761.915588,262.209839 
	C763.828674,271.269531 756.969666,282.172577 747.577393,285.255768 
	C743.044250,286.743896 738.748474,286.172638 734.104187,284.316345 
M750.833557,270.215088 
	C755.354187,263.630585 750.943237,255.533615 743.770874,254.746628 
	C738.602234,254.179504 732.522034,261.077179 732.228882,267.588928 
	C732.054626,271.459534 733.950928,273.974121 737.005188,275.689331 
	C740.135986,277.447510 743.403564,277.271301 746.436035,275.222351 
	C748.109436,274.091705 749.471497,272.632416 750.833557,270.215088 
z"/>
<path fill="#000000" opacity="1.000000" stroke="none" 
	d="
M289.121399,279.959625 
	C283.554016,271.620178 278.257263,263.541748 272.871857,255.522827 
	C268.770020,249.415100 268.734985,249.397675 274.839142,245.018616 
	C278.377014,242.480576 282.121674,240.301071 286.237274,238.871536 
	C293.287628,236.422607 300.905975,240.796936 301.095398,248.242340 
	C301.252777,254.428787 303.955750,257.745483 309.125885,260.077423 
	C310.872772,260.865326 312.877136,261.609924 313.697540,263.679230 
	C310.201324,269.642120 307.958832,270.255951 302.201172,266.846924 
	C300.481354,265.828674 298.784698,264.768829 297.037354,263.800354 
	C295.680695,263.048462 294.465881,263.494354 293.392975,264.479279 
	C292.220734,265.555359 292.191895,266.794067 292.950409,268.089386 
	C293.791626,269.526001 294.723389,270.910370 295.543213,272.358551 
	C296.377625,273.832520 298.732758,275.380371 296.756500,277.041412 
	C294.734955,278.740540 293.098114,282.225708 289.121399,279.959625 
M292.056152,251.966187 
	C292.572266,249.227692 291.088501,247.692749 288.667175,247.498032 
	C286.174683,247.297623 284.215149,248.776901 283.050415,250.993423 
	C282.159821,252.688324 283.317108,253.865784 284.511261,254.809677 
	C286.687897,256.530121 288.584473,255.295792 290.390594,254.018280 
	C290.920044,253.643784 291.298096,253.055267 292.056152,251.966187 
z"/>
<path fill="#000000" opacity="1.000000" stroke="none" 
	d="
M421.849854,215.400055 
	C419.423004,225.168335 404.888062,231.068497 395.171783,225.847565 
	C385.801971,220.812805 382.160370,206.463181 387.956207,196.998138 
	C393.750671,187.535385 407.100311,184.775146 415.853302,191.947998 
	C423.105164,197.890701 424.701935,206.063583 421.849854,215.400055 
M394.890442,209.697220 
	C397.498413,218.245819 404.050934,221.480286 409.580078,216.948318 
	C413.728088,213.548416 414.729492,208.416672 412.214386,203.448257 
	C409.769012,198.617569 405.994904,196.385162 401.918304,197.358002 
	C397.223206,198.478439 394.532867,202.776794 394.890442,209.697220 
z"/>
<path fill="#000000" opacity="1.000000" stroke="none" 
	d="
M723.001587,254.822250 
	C717.134888,262.656616 708.270020,265.182098 699.837646,261.678589 
	C692.068542,258.450653 687.007751,250.219849 688.173950,242.708755 
	C689.850708,231.909348 696.770569,224.361954 705.598572,223.704132 
	C714.321289,223.054169 723.012512,228.413147 725.617126,236.367783 
	C727.696350,242.717636 726.745361,248.824524 723.001587,254.822250 
M705.022461,233.570648 
	C701.740784,235.187378 699.531738,237.730026 698.326904,241.188797 
	C696.606567,246.127518 697.884338,250.083252 701.993042,252.830719 
	C705.730896,255.330261 709.164612,254.772430 712.447937,252.036179 
	C716.228577,248.885468 718.379883,241.995590 716.641907,238.721115 
	C714.270447,234.253128 710.355164,232.320679 705.022461,233.570648 
z"/>
<path fill="#000000" opacity="1.000000" stroke="none" 
	d="
M363.132843,199.757965 
	C375.889130,196.770477 382.588257,203.072403 379.752136,215.258484 
	C378.911713,218.869675 379.605743,221.285828 382.421448,223.527847 
	C384.974243,225.560562 387.273193,227.912109 389.702942,230.140427 
	C384.249573,235.143799 381.970001,235.266663 377.035858,231.153778 
	C371.698761,226.705017 371.698761,226.705032 368.161530,225.917816 
	C366.363434,228.780334 368.209106,231.298767 369.106384,233.804001 
	C370.172028,236.779388 370.625824,239.024536 366.702240,240.387726 
	C363.044617,241.658493 361.659271,240.336014 360.583923,237.074142 
	C357.515442,227.766006 354.383301,218.472717 350.970245,209.287277 
	C349.576782,205.537064 350.520264,203.748581 354.239319,202.755844 
	C357.121490,201.986481 359.899109,200.825348 363.132843,199.757965 
M366.738373,207.699905 
	C364.499390,208.555267 362.317078,209.521866 362.385651,212.429672 
	C362.419739,213.876099 363.276703,214.938690 364.655548,215.419922 
	C366.392944,216.026276 367.970001,215.470383 369.311188,214.376205 
	C371.957458,212.217331 371.270081,209.871689 366.738373,207.699905 
z"/>
<path fill="#000000" opacity="1.000000" stroke="none" 
	d="
M333.516327,251.893524 
	C321.805756,249.108444 315.221558,239.557404 316.744659,228.047012 
	C318.244415,216.713089 331.065308,209.395676 341.604584,213.864090 
	C343.542358,214.685654 345.366821,215.653732 344.336273,218.266541 
	C343.478149,220.442123 342.748901,222.542587 339.458466,222.027924 
	C332.743958,220.977676 328.331818,222.775620 326.656647,226.764877 
	C324.929077,230.878845 327.060974,237.514236 331.266113,241.111328 
	C335.183594,244.462357 340.947083,243.943329 343.509979,239.953445 
	C344.223785,238.842255 344.928375,237.570908 344.217712,236.216583 
	C343.438080,234.730713 341.903076,234.797577 340.697815,235.269531 
	C337.456238,236.538925 336.285431,234.952271 335.314636,232.160782 
	C334.210663,228.986374 336.502502,228.494965 338.391571,227.562302 
	C339.882355,226.826294 341.389191,226.122208 342.897217,225.421783 
	C349.854706,222.190369 351.341919,222.937881 353.061127,230.517349 
	C355.887115,242.976471 347.487427,252.401566 333.516327,251.893524 
z"/>
<path fill="#000000" opacity="1.000000" stroke="none" 
	d="
M654.069336,240.062103 
	C651.588379,239.107239 650.253235,237.917480 651.284851,235.391907 
	C655.308411,225.541855 659.253723,215.659409 663.345642,205.837936 
	C664.867554,202.184814 667.539856,204.432938 669.728271,204.998566 
	C672.080872,205.606628 672.999512,207.140213 671.912903,209.531967 
	C671.431091,210.592468 671.012939,211.682968 670.504883,212.730255 
	C668.648865,216.555878 668.616272,219.762085 673.193542,221.710632 
	C678.031189,223.770035 680.067871,222.856461 682.701599,217.876160 
	C683.797180,215.804504 683.386414,212.087540 687.390198,212.514694 
	C692.409058,213.050156 693.920898,215.628174 691.832092,220.274796 
	C687.808777,229.224854 683.651245,238.114700 679.645264,247.072388 
	C678.566467,249.484512 677.205933,250.525848 674.653381,249.171326 
	C672.450073,248.002151 669.779785,247.162247 671.223633,243.717636 
	C672.059448,241.723358 672.830750,239.697983 673.757996,237.746887 
	C675.664612,233.735275 673.894409,231.482254 670.262146,229.965515 
	C666.614136,228.442200 663.784180,228.796555 662.308044,232.998337 
	C661.759033,234.560852 660.786255,235.986633 660.333923,237.568344 
	C659.379578,240.905060 657.541687,241.877045 654.069336,240.062103 
z"/>
<path fill="#000000" opacity="1.000000" stroke="none" 
	d="
M591.754028,196.186096 
	C592.932617,189.712357 596.879456,186.430328 602.730530,185.823318 
	C609.254272,185.146530 614.867798,187.476807 619.045471,192.664139 
	C620.233154,194.138885 620.942993,196.006119 618.941223,197.492004 
	C616.928528,198.986053 614.801392,200.625656 612.210083,198.638397 
	C610.499634,197.326645 609.030823,195.649109 606.751404,195.302292 
	C605.585754,195.124924 604.346252,194.994751 603.643005,196.232300 
	C602.968689,197.418900 603.379578,198.611450 604.289978,199.405548 
	C605.783997,200.708664 607.407104,201.878128 609.052490,202.990555 
	C613.828003,206.219269 616.117065,211.475723 614.743652,216.231766 
	C613.031250,222.161743 608.962891,225.201233 602.579773,225.319748 
	C593.486938,225.488571 587.016174,220.330612 586.629211,212.364975 
	C590.310242,210.946472 593.811340,209.078888 596.828430,213.994049 
	C598.097961,216.062332 600.906860,216.981689 602.875793,214.841812 
	C605.199890,212.315948 602.893555,210.531555 600.892273,209.307693 
	C596.020020,206.328186 591.887268,202.922684 591.754028,196.186096 
z"/>
<path fill="#000000" opacity="1.000000" stroke="none" 
	d="
M456.462585,215.341370 
	C450.870544,220.260956 444.522736,221.057739 437.888672,220.195404 
	C432.790436,219.532700 429.002747,215.522064 427.991333,209.630417 
	C426.728424,202.273987 425.872040,194.848495 424.775757,187.462372 
	C424.256042,183.960861 426.531097,183.224701 429.170685,182.779251 
	C432.131378,182.279587 433.962982,183.180923 434.294037,186.501602 
	C434.886536,192.444962 435.638123,198.372986 436.366333,204.302124 
	C436.990112,209.380707 439.627777,211.849365 444.072052,211.604889 
	C448.307983,211.371872 450.946777,208.278564 450.579285,203.261490 
	C450.106781,196.810730 449.374451,190.370087 448.488159,183.961868 
	C447.953339,180.094803 450.558960,179.933350 453.029694,179.637360 
	C455.357544,179.358475 457.152832,179.739578 457.402802,182.885147 
	C458.033691,190.824005 459.547211,198.682114 459.397675,206.699783 
	C459.339691,209.809830 458.800507,212.646378 456.462585,215.341370 
z"/>
<path fill="#000000" opacity="1.000000" stroke="none" 
	d="
M260.605286,308.489746 
	C256.875549,312.452240 252.756042,314.698792 247.536072,314.302887 
	C245.378738,314.139252 242.801788,314.064911 242.878555,311.051361 
	C242.945557,308.420471 243.256363,305.647247 247.134872,305.567596 
	C248.721283,305.535004 250.376404,304.838684 251.844925,304.124786 
	C253.549927,303.295929 255.105072,301.911499 254.282196,299.791687 
	C253.398514,297.515198 251.329315,298.037018 249.549835,298.586426 
	C246.534500,299.517365 243.555283,300.565491 240.561951,301.567535 
	C236.152786,303.043549 232.218857,302.012024 229.143250,298.729919 
	C225.835724,295.200317 225.906845,290.736450 227.369797,286.517120 
	C229.525085,280.301086 237.210083,275.874329 243.758835,276.684814 
	C245.530045,276.903992 247.861938,276.923492 247.572601,279.524963 
	C247.311798,281.869812 247.328888,284.822510 243.902252,285.209991 
	C241.749969,285.453369 239.529510,285.358307 237.826309,287.015900 
	C236.706268,288.105988 235.769135,289.356659 236.654800,290.975128 
	C237.442749,292.415009 238.819885,292.348022 240.169525,291.885315 
	C242.055161,291.238861 243.959702,290.623932 245.787323,289.835876 
	C253.222717,286.629791 257.661163,287.010498 261.327850,291.259949 
	C265.410675,295.991699 265.257660,301.436676 260.605286,308.489746 
z"/>
<path fill="#000000" opacity="1.000000" stroke="none" 
	d="
M638.260986,203.695953 
	C632.042542,206.243912 628.910950,211.251587 629.363342,217.434464 
	C629.787415,223.231354 636.036316,227.015167 641.319824,224.647919 
	C642.225281,224.242233 643.015503,223.563965 643.934937,223.207657 
	C646.704895,222.134293 648.984009,223.296997 650.419556,225.483124 
	C651.859192,227.675552 649.875610,229.162277 648.415466,230.458649 
	C642.392517,235.806061 633.062134,235.834518 626.509583,230.136627 
	C617.415222,222.228500 618.126465,212.100769 623.788635,202.086823 
	C628.006836,194.626572 640.430420,192.411819 648.367798,196.935577 
	C651.542786,198.745087 653.951050,201.313980 654.900208,204.777054 
	C655.464539,206.836380 657.675049,209.914886 654.069580,211.129242 
	C651.241028,212.081955 647.717102,213.755371 645.981445,208.743866 
	C644.914612,205.663773 642.104370,203.844925 638.260986,203.695953 
z"/>
<path fill="#000000" opacity="1.000000" stroke="none" 
	d="
M463.561157,190.384766 
	C461.614105,177.679977 461.614105,177.679565 473.712158,177.649628 
	C475.537781,177.645111 477.363525,177.633957 479.189026,177.647568 
	C486.261627,177.700348 490.768372,181.318298 491.344086,187.394363 
	C492.104980,195.424591 488.146271,201.033524 480.810272,202.319305 
	C473.819458,203.544571 472.789520,204.830566 473.860046,211.962173 
	C474.286407,214.802704 473.816803,216.565430 470.631073,216.687302 
	C467.699982,216.799438 464.887756,216.896622 464.728546,212.679825 
	C464.453674,205.398224 463.981262,198.124084 463.561157,190.384766 
M477.288910,193.840958 
	C479.800140,193.410263 482.018646,192.373718 481.609039,189.439606 
	C481.289429,187.150436 479.559601,185.535797 477.063354,185.631348 
	C474.664917,185.723145 472.951202,187.091583 472.589874,189.563705 
	C472.165741,192.465836 473.517944,193.990082 477.288910,193.840958 
z"/>
<path fill="#000000" opacity="1.000000" stroke="none" 
	d="
M550.159302,198.405701 
	C550.747437,193.026321 551.269653,188.084824 551.642883,183.132095 
	C551.885437,179.914246 552.534912,177.830826 556.700195,178.487122 
	C561.916687,179.309082 567.242676,179.502304 572.531250,179.778244 
	C576.498291,179.985229 576.744141,182.123032 576.465149,185.450195 
	C576.161255,189.074509 574.417664,189.438644 571.493896,188.966629 
	C569.212158,188.598236 566.881104,188.458466 564.566895,188.392441 
	C562.729065,188.339996 561.254517,189.078522 561.169250,191.194412 
	C561.087830,193.216202 562.396851,194.162781 564.182983,194.557144 
	C565.637878,194.878372 567.105164,195.293640 568.578979,195.349487 
	C572.019531,195.479828 572.483276,197.485855 572.337891,200.371002 
	C572.159180,203.916168 570.030029,203.597870 567.511353,203.460236 
	C559.775269,203.037552 558.742249,203.819092 557.597107,211.721985 
	C557.157227,214.758240 556.640137,216.653046 552.905151,216.411545 
	C548.862549,216.150162 548.362793,213.810669 548.683838,210.675308 
	C549.088379,206.725281 549.577515,202.783905 550.159302,198.405701 
z"/>
<path fill="#000000" opacity="1.000000" stroke="none" 
	d="
M267.795197,287.898193 
	C273.719849,282.910217 274.632996,283.149841 280.043488,290.991028 
	C277.650665,293.277252 275.426422,297.154633 271.910675,296.030914 
	C269.345551,295.211121 266.683655,292.078278 267.795197,287.898193 
z"/>
<path fill="#000000" opacity="1.000000" stroke="none" 
	d="
M476.219666,854.271484 
	C477.347565,853.862061 477.745728,854.405518 477.613434,855.114197 
	C476.720184,859.899902 478.251160,862.484863 483.618835,861.433655 
	C484.490112,864.614746 483.059906,866.250122 480.626007,866.921753 
	C478.172211,867.598877 476.466553,866.141357 475.597504,863.963684 
	C474.331329,860.791138 474.178131,857.571411 476.219666,854.271484 
z"/>
<path fill="#000000" opacity="1.000000" stroke="none" 
	d="
M224.198303,835.965454 
	C224.713226,834.046997 224.036179,831.569519 226.669937,831.499756 
	C228.403122,831.453796 230.361282,831.367798 231.562103,833.168213 
	C232.169785,834.079285 232.160248,835.024719 231.659119,835.953552 
	C230.554779,838.000366 228.694733,837.621277 226.887665,837.396545 
	C225.918228,837.276001 224.897552,837.295837 224.198303,835.965454 
z"/>
<path fill="#000000" opacity="1.000000" stroke="none" 
	d="
M226.923859,827.620728 
	C225.829819,825.626770 226.492523,824.164429 227.527496,822.434998 
	C229.781815,822.783020 233.139435,821.982544 232.983643,825.572571 
	C232.828262,829.152893 229.722321,828.493164 226.923859,827.620728 
z"/>
<path fill="#000000" opacity="1.000000" stroke="none" 
	d="
M602.367798,857.860962 
	C602.132751,861.356628 601.280029,864.081238 597.645630,864.239929 
	C593.686829,864.412720 592.805115,861.299866 592.177307,858.294067 
	C591.876892,856.855652 591.781677,855.267700 592.059631,853.838135 
	C592.592468,851.097961 593.722229,848.646667 597.159058,848.738098 
	C600.479675,848.826233 601.697693,851.129639 602.244690,853.928467 
	C602.465393,855.057617 602.344666,856.253479 602.367798,857.860962 
z"/>
<path fill="#000000" opacity="1.000000" stroke="none" 
	d="
M381.697266,845.910278 
	C385.964172,850.142700 386.314575,855.320190 382.958832,859.440002 
	C381.035492,861.801270 378.586731,862.128845 376.462677,860.091675 
	C373.561890,857.309570 374.398834,853.516174 375.060638,850.186584 
	C375.658203,847.180054 377.832153,845.296753 381.697266,845.910278 
z"/>
<path fill="#000000" opacity="1.000000" stroke="none" 
	d="
M429.911194,858.634277 
	C429.205353,860.371155 428.716370,861.800720 427.922333,863.033875 
	C427.418274,863.816711 426.554138,864.594177 425.689056,864.876526 
	C422.824890,865.811401 420.929871,864.489624 419.758636,861.884094 
	C418.066406,858.119751 419.490753,851.562866 422.461853,850.221741 
	C425.472656,848.862732 427.559326,850.174561 428.841156,853.006287 
	C429.591614,854.664185 430.381378,856.328674 429.911194,858.634277 
z"/>
<path fill="#000000" opacity="1.000000" stroke="none" 
	d="
M622.244263,857.601807 
	C621.606384,860.005920 620.564392,861.567810 618.563293,862.437012 
	C615.525513,863.756470 613.362732,863.484375 613.047852,859.626587 
	C612.860046,857.325745 612.661499,855.010803 612.725403,852.709351 
	C612.775574,850.899353 611.898132,848.431946 614.777100,847.878418 
	C617.617737,847.332275 619.982361,848.115173 621.436401,850.887268 
	C622.493774,852.903259 622.340881,855.038452 622.244263,857.601807 
z"/>
<path fill="#000000" opacity="1.000000" stroke="none" 
	d="
M461.771179,857.273926 
	C458.895233,857.438965 457.597992,856.428040 457.771881,853.834290 
	C457.870239,852.367249 458.344849,851.163208 459.970673,851.069153 
	C461.997192,850.951843 464.158142,851.159851 464.902557,853.414734 
	C465.617828,855.581360 464.266357,856.784424 461.771179,857.273926 
z"/>
<path fill="#000000" opacity="1.000000" stroke="none" 
	d="
M538.933960,858.959229 
	C538.876038,859.524170 538.839905,859.687012 538.811646,859.851135 
	C538.263794,863.041260 537.676025,866.468384 533.788452,866.994690 
	C530.907654,867.384766 529.382385,865.177429 528.535217,862.597778 
	C527.232117,858.629883 527.449707,854.812622 530.930786,852.186523 
	C533.708862,850.090637 536.387817,851.130432 537.914062,854.211304 
	C538.559082,855.513184 538.628418,857.100220 538.933960,858.959229 
z"/>
<path fill="#000000" opacity="1.000000" stroke="none" 
	d="
M447.146057,852.989258 
	C447.304443,856.015625 445.811920,857.063721 443.456635,856.862000 
	C442.018646,856.738892 440.345673,856.508972 440.069977,854.555969 
	C439.877319,853.191406 439.923676,851.634888 441.381561,851.119446 
	C443.468262,850.381714 445.669312,850.168335 447.146057,852.989258 
z"/>
<path fill="#000000" opacity="1.000000" stroke="none" 
	d="
M284.607605,843.571777 
	C285.016357,840.881470 285.399872,838.593994 285.825439,836.314453 
	C286.342499,833.544983 288.131653,832.579834 290.561768,833.694397 
	C293.927002,835.237915 294.681885,838.364441 294.216736,841.701904 
	C293.794067,844.734619 292.867828,847.678650 289.206360,848.316528 
	C285.827576,848.905212 283.499603,848.220642 284.607605,843.571777 
z"/>
<path fill="#000000" opacity="1.000000" stroke="none" 
	d="
M721.981018,843.232727 
	C722.359863,844.695068 722.737305,845.932556 721.002808,846.189880 
	C720.041504,846.332520 718.825378,846.515991 718.300354,845.574768 
	C717.263245,843.715881 717.436890,841.831055 718.936462,840.112793 
	C720.942627,840.001770 720.982849,841.887634 721.981018,843.232727 
z"/>
<path fill="#000000" opacity="1.000000" stroke="none" 
	d="
M776.565430,836.033691 
	C770.817505,835.021545 774.540894,831.854431 774.987488,829.373535 
	C776.542480,831.267090 780.235474,832.420471 776.565430,836.033691 
z"/>
<path fill="#000000" opacity="1.000000" stroke="none" 
	d="
M637.272583,852.133057 
	C638.970215,857.409912 635.957825,856.206055 633.243225,855.764954 
	C633.110474,853.387085 633.314331,851.358643 634.715881,849.634399 
	C636.419006,849.494873 636.473145,850.968262 637.272583,852.133057 
z"/>
</svg>